<?xml version="1.0" encoding="UTF-8" standalone="no"?>
<!-- Created with Inkscape (http://www.inkscape.org/) -->

<svg
   width="70mm"
   height="104.99999mm"
   viewBox="0 0 70 104.99999"
   version="1.1"
   id="svg5"
   inkscape:version="1.1.2 (08b2f3d93c, 2022-04-05)"
   sodipodi:docname="Logo_Whistler.svg"
   xmlns:inkscape="http://www.inkscape.org/namespaces/inkscape"
   xmlns:sodipodi="http://sodipodi.sourceforge.net/DTD/sodipodi-0.dtd"
   xmlns="http://www.w3.org/2000/svg"
   xmlns:svg="http://www.w3.org/2000/svg">
  <sodipodi:namedview
     id="namedview7"
     pagecolor="#505050"
     bordercolor="#eeeeee"
     borderopacity="1"
     inkscape:pageshadow="0"
     inkscape:pageopacity="0"
     inkscape:pagecheckerboard="0"
     inkscape:document-units="mm"
     showgrid="false"
     fit-margin-top="0"
     fit-margin-left="0"
     fit-margin-right="0"
     fit-margin-bottom="0"
     inkscape:zoom="1.4648618"
     inkscape:cx="79.529687"
     inkscape:cy="162.81399"
     inkscape:window-width="1920"
     inkscape:window-height="948"
     inkscape:window-x="0"
     inkscape:window-y="27"
     inkscape:window-maximized="1"
     inkscape:current-layer="layer1" />
  <defs
     id="defs2" />
  <g
     inkscape:label="Capa 1"
     inkscape:groupmode="layer"
     id="layer1"
     transform="translate(-69.999996,-0.09059906)">
    <path
       style="fill:none;stroke:#000000;stroke-width:0.264583px;stroke-linecap:butt;stroke-linejoin:miter;stroke-opacity:1"
       d="m 139.90941,105 -4.1e-4,-8.337 -5.14084,-15.829277 -10.24386,-22.7214 -2.39289,-3.074759 5.93164,0.926602 3.02836,-0.749059 c 0,0 3.45511,-7.291726 3.3051,-8.931831 -0.15001,-1.640101 -0.89194,-6.685216 -0.89194,-6.685216 l -7.9673,-12.147722 -10.01057,-4.838853 -12.32633,0.158049 -7.344628,-1.934579 1.38047,-2.970256 -0.90332,-5.761132 5.986898,-9.2279145 -4.927688,0.0274 -5.014011,3.553172 -4.46096,-0.236194 -4.02241,2.911808 -0.8728,7.0092215 -2.63485,3.56 1.25464,3.809736 3.34781,-2.857155 3.13871,3.004384 2.18841,-0.330645 1.58348,0.455344 -6.54035,3.036808 -9.14001,11.768991 -1.88197,7.136654 1.48181,0.711258 16.76708,-7.642873 -3.39283,18.999946 -4.35779,7.936744 -1.68418,6.64389 1.07372,7.48725 4.71312,-3.09167 -1.11885,-8.49049 6.0487,-11.492987 5.172419,-14.707918 4.55578,9.578052 -1.05842,7.151409 -10.016519,17.671114 0.23062,5.72042 15.853119,21.607158 c 0,0 0.17481,-4.693588 -0.42169,-5.526078 -0.59652,-0.8325 -8.57429,-18.04877 -8.57429,-18.04877 l 3.78966,-6.86042 9.55438,-11.98245 15.05952,22.368092 z"
       id="path1046"
       sodipodi:nodetypes="cccccccscccccccccccccccccccccccccccccccccccccsccccc" />
    <path
       style="fill:none;stroke:#000000;stroke-width:0.264583px;stroke-linecap:butt;stroke-linejoin:miter;stroke-opacity:1"
       d="m 80.271757,40.242425 12.14858,-8.296038 0.0891,-4.96188 -6.16697,2.284898 z"
       id="path1161"
       sodipodi:nodetypes="ccccc" />
    <path
       style="fill:#000000;fill-opacity:1;stroke:#000000;stroke-width:0.516025;stroke-miterlimit:4;stroke-dasharray:none;stroke-opacity:1"
       d="M 241.5833,354.27247 220.00183,315.72944 191.4132,273.23397 c -15.72375,-23.37251 -28.7906,-42.49548 -29.03745,-42.49548 -0.24685,0 -8.66511,10.32295 -18.70723,22.93988 -17.28251,21.71376 -18.63623,23.62498 -25.32682,35.75712 -3.88763,7.04948 -7.0684,13.13285 -7.0684,13.51861 0,0.70586 15.65504,34.40928 27.17917,58.51345 l 6.20116,12.9705 0.45407,7.50924 c 0.40165,6.64252 0.33711,7.39106 -0.55924,6.48526 -0.55732,-0.5632 -13.76374,-18.44021 -29.3476,-39.72669 l -28.334283,-38.7027 -0.48423,-10.4487 -0.48423,-10.44869 18.931353,-33.39421 18.93135,-33.39422 2.04911,-13.79757 2.04911,-13.79756 -8.69233,-18.34341 c -4.78078,-10.08888 -8.92243,-18.58432 -9.20367,-18.87875 -0.28125,-0.29444 -4.89722,11.99341 -10.257716,27.30633 l -9.746367,27.84167 -11.644895,22.18639 c -8.445734,16.0912 -11.608897,22.74903 -11.513852,24.23437 0.07208,1.12638 0.89212,7.68981 1.822319,14.58539 0.9302,6.89558 1.681426,13.3467 1.669393,14.33582 -0.01868,1.53499 -1.118631,2.49835 -7.50959,6.57702 -4.118242,2.62823 -7.717952,4.71293 -7.999356,4.63265 -0.281404,-0.0803 -1.337916,-5.917 -2.347803,-12.9705 l -1.836158,-12.82456 3.067662,-12.28785 3.067661,-12.28785 8.365043,-15.35981 8.365042,-15.35981 6.391945,-36.00731 c 3.51557,-19.80402 6.210079,-36.18918 5.987799,-36.41146 -0.222288,-0.22228 -14.629656,6.08211 -32.016382,14.00975 -29.217283,13.3219 -31.756669,14.35408 -33.518768,13.62419 -1.048596,-0.43435 -2.084529,-1.07771 -2.302073,-1.4297 -0.217544,-0.352 1.094631,-6.32035 2.915945,-13.26302 l 3.311479,-12.62304 16.260034,-20.95167 c 8.943018,-11.52342 16.93012,-21.6172 17.749114,-22.43062 0.818995,-0.81342 7.16409,-4.099067 14.100212,-7.301431 7.136144,-3.29472 12.174412,-5.98423 11.60519,-6.195041 -4.612184,-1.708148 -7.445225,-2.103147 -11.184099,-1.559362 l -4.034234,0.586738 -5.53724,-5.508472 c -3.045482,-3.029665 -5.924104,-5.508479 -6.396938,-5.508479 -0.472834,0 -3.376532,2.14326 -6.452663,4.762804 -3.076131,2.619544 -5.793466,4.539521 -6.03852,4.266614 -0.245055,-0.272906 -1.280666,-3.041809 -2.301358,-6.153119 L 40.148063,74.35975 45.0215,67.876077 49.894937,61.392403 51.54701,48.419172 c 0.90864,-7.135277 1.826519,-13.255491 2.039731,-13.600475 0.213211,-0.344983 3.562103,-2.913707 7.441979,-5.708274 l 7.054323,-5.081031 8.539651,0.368801 8.539654,0.368801 9.298222,-6.601934 9.29822,-6.601935 8.20716,0.191697 8.20718,0.191697 -10.64263,16.383799 C 97.403769,46.998813 98.419817,43.454041 100.72521,59.049939 l 1.21093,8.191899 -2.600223,5.644817 c -1.430121,3.10465 -2.463304,5.781739 -2.29595,5.949089 0.167347,0.16735 6.649573,1.991628 14.404943,4.053953 l 14.10067,3.749671 23.07148,-0.388801 23.07149,-0.388802 18.87178,9.12181 18.87178,9.121805 3.06045,4.77861 c 1.68325,2.62824 8.40591,12.92141 14.93924,22.87372 l 11.8788,18.0951 1.51843,11.2592 c 1.90104,14.09627 1.89194,15.35582 -0.15503,21.45363 -1.45575,4.33661 -9.68939,24.23289 -10.28213,24.84637 -0.11969,0.12388 -2.59229,0.83357 -5.49468,1.57708 l -5.27708,1.35187 -11.5741,-1.7947 c -6.36576,-0.98708 -11.73439,-1.6344 -11.9303,-1.43849 -0.19591,0.19591 1.63286,2.905 4.06392,6.0202 2.43107,3.1152 5.0436,6.89279 5.80563,8.39463 0.76203,1.50185 9.68582,21.16241 19.83064,43.69013 l 18.44512,40.9595 9.63733,29.7583 9.63732,29.75831 -0.18545,13.56333 -0.18546,13.56332 z M 62.462413,136.70232 l 22.75024,-15.53048 0.460528,-7.50924 c 0.253287,-4.13008 0.356996,-8.7803 0.230472,-10.33381 l -0.230042,-2.82456 -12.267708,4.55706 -12.267709,4.55706 -11.454665,20.69847 c -6.300067,11.38416 -11.454667,20.97241 -11.454667,21.30722 0,0.33481 0.333744,0.60875 0.741655,0.60875 0.407909,0 10.979263,-6.98871 23.491896,-15.53047 z"
       id="path19232"
       transform="matrix(0.26458333,0,0,0.26458333,69.999996,0.09059906)" />
    <path
       style="fill:#000000;fill-opacity:1;stroke:#000000;stroke-width:0.516025;stroke-miterlimit:4;stroke-dasharray:none;stroke-opacity:1"
       d="m 241.33522,353.09607 c -19.322,-34.52757 -22.64204,-40.00894 -38.47288,-63.5186 -28.73206,-42.66866 -39.84879,-58.83898 -40.4505,-58.83898 -0.84381,0 -21.24469,25.0717 -32.49558,39.93551 -8.05087,10.63619 -18.98096,30.24497 -18.41212,33.03169 0.41836,2.04958 9.72201,22.32091 23.37703,50.93527 l 9.44735,19.79709 0.24607,6.82659 0.24608,6.82658 -8.6541,-11.60519 c -4.75976,-6.38286 -17.7134,-23.97864 -28.78587,-39.10174 L 87.248941,309.88774 86.716017,299.62263 86.1831,289.35752 104.26446,257.48804 c 9.94474,-17.52822 18.5118,-32.79107 19.03792,-33.91746 0.52611,-1.12639 1.85939,-8.0383 2.96286,-15.35981 l 2.0063,-13.31184 -8.96345,-18.90804 c -4.92989,-10.39943 -9.20187,-18.76069 -9.49329,-18.58057 -0.29142,0.1801 -0.33746,0.82881 -0.10233,1.44157 0.26747,0.697 0.15398,0.94505 -0.30314,0.66254 -0.80119,-0.49517 -3.02039,5.26959 -13.424528,34.87268 -5.388331,15.3315 -7.604895,20.61325 -12.605497,30.03696 -9.73379,18.3435 -15.868101,30.90406 -15.435074,31.6047 0.221194,0.35791 0.02565,0.65073 -0.434552,0.65073 -0.460197,0 -0.634591,0.20214 -0.38754,0.44919 0.247051,0.24705 0.19273,0.78464 -0.120712,1.19465 -0.314774,0.41175 0.133113,6.09349 1.000499,12.69199 2.198242,16.72277 2.164615,17.86157 -0.589423,19.96107 -2.975933,2.26866 -11.308499,7.34526 -12.056267,7.34526 -0.671393,0 -1.577803,-4.67046 -3.251283,-16.75287 l -1.138465,-8.21964 2.942966,-11.91877 2.942966,-11.91879 8.44789,-15.57439 8.44789,-15.5744 4.36834,-24.70244 c 6.365175,-35.99431 8.21413,-47.48331 7.720971,-47.97647 -0.397669,-0.39767 -13.619899,5.33518 -45.902003,19.90206 -14.918584,6.73181 -18.517074,7.99431 -20.207555,7.08959 -0.712899,-0.38153 -1.29618,-1.13831 -1.29618,-1.68171 0,-0.54341 1.360805,-6.34035 3.024011,-12.8821 l 3.024011,-11.89408 11.092796,-14.22955 c 6.101037,-7.82625 13.840328,-17.70451 17.198423,-21.95168 l 6.105628,-7.72213 12.545162,-6.136882 c 6.899839,-3.375288 12.545162,-6.404427 12.545162,-6.73142 0,-0.857829 -4.636396,-2.262159 -6.156292,-1.864695 -0.708118,0.185178 -1.379015,0.111273 -1.490882,-0.16422 -0.111868,-0.275501 -1.739377,-0.310398 -3.616688,-0.07756 l -3.413291,0.42335 -5.677293,-5.311238 c -3.12251,-2.921183 -6.194473,-5.308263 -6.826582,-5.304619 -0.63211,0.0036 -2.395774,1.002032 -3.919255,2.218642 -1.523481,1.216606 -4.018609,3.205135 -5.544728,4.418949 l -2.774763,2.206932 -1.445766,-3.965145 C 40.380564,74.564163 40.346342,74.76214 45.558191,67.81378 l 4.691503,-6.254642 1.588053,-12.51846 c 0.873429,-6.885154 1.747838,-12.937566 1.943131,-13.449805 0.195292,-0.51224 3.457499,-3.229388 7.249348,-6.038108 l 6.894271,-5.106765 8.689301,0.326096 8.689301,0.326096 9.401146,-6.627768 9.401135,-6.627768 7.58359,0.393261 7.58359,0.393261 -8.45804,12.970507 c -8.60985,13.203298 -11.247011,17.641572 -11.043517,18.585988 0.0626,0.290644 -0.148922,1.137827 -0.470106,1.882629 -0.362546,0.840729 -0.03782,5.081696 0.856503,11.185078 l 1.44046,9.830892 -2.330188,5.113281 c -1.281609,2.812305 -2.3302,5.522715 -2.3302,6.023135 0,0.951568 2.578203,1.806595 18.431778,6.112647 l 9.21588,2.503171 23.53304,-0.321191 23.53304,-0.321191 17.27111,8.4025 c 9.49912,4.621371 17.84579,8.584896 18.54818,8.807816 0.71171,0.22589 7.96954,10.64882 16.39467,23.54433 l 15.11761,23.139 1.33913,10.02131 c 2.32581,17.4053 2.13483,18.5078 -6.82302,39.38575 l -3.30029,7.69195 -5.30522,1.40553 -5.30522,1.40553 -10.29664,-1.56531 c -12.21247,-1.85654 -13.64531,-1.92751 -13.15568,-0.65156 0.19745,0.51454 2.34666,3.6633 4.77603,6.99724 4.56958,6.27107 5.33533,7.87903 33.60866,70.57294 8.81694,19.55091 9.97969,22.65345 19.06012,50.85804 l 9.67035,30.03696 -0.38445,12.31923 -0.38445,12.31924 z M 57.395892,140.54626 c 27.198017,-18.31446 27.696856,-18.68874 28.189335,-21.15113 0.559746,-2.79875 0.559364,-19.04437 -4.5e-4,-19.04437 -0.236596,0 -5.912806,2.03432 -12.613809,4.5207 l -12.18364,4.5207 -10.993853,20.02455 c -6.046619,11.01351 -11.158103,20.65266 -11.358852,21.42032 -0.24318,0.92992 -0.03607,1.39576 0.620541,1.39576 0.542047,0 8.795375,-5.25894 18.340728,-11.68653 z"
       id="path19308"
       transform="matrix(0.26458333,0,0,0.26458333,69.999996,0.09059906)" />
  </g>
</svg>
